<svg xmlns="http://www.w3.org/2000/svg" viewBox="0 0 72 82">
<defs>
  <linearGradient id="body" x1="19" y1="18" x2="57" y2="65" gradientUnits="userSpaceOnUse">
    <stop stop-color="#687482"/><stop offset=".34" stop-color="#394656"/>
    <stop offset=".78" stop-color="#182230"/><stop offset="1" stop-color="#3a4858"/>
  </linearGradient>
  <radialGradient id="sphere" cx=".32" cy=".24" r=".83">
    <stop stop-color="#82909f"/><stop offset=".56" stop-color="#435264"/><stop offset="1" stop-color="#192534"/>
  </radialGradient>
  <linearGradient id="rim" x1="0" y1="0" x2=".8" y2="1">
    <stop stop-color="#bdc8d4" stop-opacity=".7"/><stop offset="1" stop-color="#bdc8d4" stop-opacity=".16"/>
  </linearGradient>
  <linearGradient id="shade"><stop stop-color="#14202e" stop-opacity=".5"/><stop offset="1" stop-color="#14202e" stop-opacity=".15"/></linearGradient>
  <linearGradient id="ink"><stop stop-color="#14202e"/><stop offset="1" stop-color="#14202e"/></linearGradient>
  <radialGradient id="shadow"><stop stop-color="#0c1420" stop-opacity=".24"/><stop offset="1" stop-color="#0c1420" stop-opacity="0"/></radialGradient>
</defs>
<ellipse cx="37" cy="76" rx="25" ry="4.5" fill="url(#shadow)"/>
<g fill="url(#body)" stroke="#14202e" stroke-width="1.05" stroke-linejoin="round" stroke-linecap="round">
<path d="M33.5 5 H38.5 V12 H45 V17 H38.5 V26 H33.5 V17 H27 V12 H33.5 Z"/>
      <path d="M36 28 C29 21 21 24 21 30 C20 35 25 39 29 43 C32 49 29 54 23 58 H49 C43 54 40 49 43 43 C47 39 52 35 51 30 C51 24 43 21 36 28 Z"/>
      <path d="M28 42 Q36 45 44 42 L43 46 Q36 49 29 46 Z"/>
      <path d="M35 7 V13 H29 M25 28 Q23 32 28 37 M29 44 Q36 46 42 44 M31 49 Q32 52 29 55 M28 56 Q36 58 44 56" fill="none" stroke="url(#rim)"/>
<path d="M25 58 Q36 56 47 58 L49 61 Q36 65 23 61 Z"/>
  <path d="M25 63 Q36 65 47 63 C48 66 51 68 53 71 Q36 77 19 71 C21 68 24 66 25 63 Z"/>
  <path d="M23 69 Q36 73 49 69 L53 72 Q36 78 19 72 Z"/>
  <path d="M26 60 Q36 62 46 60 M26 65 Q35 68 46 65 M23 72 Q36 75 49 72" fill="none" stroke="url(#rim)" stroke-width=".9"/>
  <path d="M26 63 Q36 66 46 63" fill="none" stroke="url(#shade)" stroke-width=".8"/>
</g>
</svg>
