<svg xmlns="http://www.w3.org/2000/svg" viewBox="0 0 72 82">
<defs>
  <linearGradient id="body" x1="12" y1="10" x2="61" y2="74" gradientUnits="userSpaceOnUse">
    <stop stop-color="#fffaf0"/><stop offset=".34" stop-color="#f1e7d4"/>
    <stop offset=".78" stop-color="#c9bda7"/><stop offset="1" stop-color="#e2d6c0"/>
  </linearGradient>
  <radialGradient id="sphere" cx=".32" cy=".24" r=".83">
    <stop stop-color="#fffdf6"/><stop offset=".56" stop-color="#eee1cb"/><stop offset="1" stop-color="#beb097"/>
  </radialGradient>
  <linearGradient id="rim" x1="0" y1="0" x2=".8" y2="1">
    <stop stop-color="#fffef8" stop-opacity=".7"/><stop offset="1" stop-color="#fffef8" stop-opacity=".16"/>
  </linearGradient>
  <linearGradient id="shade"><stop stop-color="#807361" stop-opacity=".5"/><stop offset="1" stop-color="#807361" stop-opacity=".15"/></linearGradient>
  <linearGradient id="ink"><stop stop-color="#807361"/><stop offset="1" stop-color="#807361"/></linearGradient>
  <radialGradient id="shadow"><stop stop-color="#181c13" stop-opacity=".24"/><stop offset="1" stop-color="#181c13" stop-opacity="0"/></radialGradient>
</defs>
<ellipse cx="37" cy="76" rx="29" ry="4.5" fill="url(#shadow)"/>
<g fill="url(#body)" stroke="#807361" stroke-width="1.05" stroke-linejoin="round" stroke-linecap="round">
<path d="M15 22 L25 30 L28 19 L33 27 L36 13 L39 27 L44 19 L47 30 L57 22 L49 39 Q44 43 45 49 Q46 54 53 58 H19 Q26 54 27 49 Q28 43 23 39 Z"/>
      <circle cx="36" cy="10" r="3.5" fill="url(#sphere)"/>
      <circle cx="15" cy="19" r="3.7" fill="url(#sphere)"/><circle cx="28" cy="16" r="3" fill="url(#sphere)"/>
      <circle cx="44" cy="16" r="3" fill="url(#sphere)"/><circle cx="57" cy="19" r="3.7" fill="url(#sphere)"/>
      <path d="M23 37 Q36 42 49 37 L47 43 Q36 47 25 43 Z"/>
      <path d="M23 29 L27 35 M27 40 Q36 43 45 40 M30 47 Q30 51 25 55 M24 56 Q36 60 48 56" fill="none" stroke="url(#rim)"/>
      <path d="M43 46 Q42 51 47 54" fill="none" stroke="url(#shade)" stroke-width="2"/>
<path d="M22 58 Q36 56 50 58 L53 62 Q36 67 19 62 Z"/>
  <path d="M22 64 Q36 67 50 64 Q52 67 58 71 Q36 79 14 71 Q20 67 22 64 Z"/>
  <path d="M18 70 Q36 77 54 70 L58 73 Q36 81 14 73 Z"/>
  <path d="M23 60 Q36 63 49 60 M24 66 Q36 71 49 66 M19 73 Q36 78 53 73" fill="none" stroke="url(#rim)" stroke-width="1"/>
  <path d="M23 64 Q36 68 49 64" fill="none" stroke="url(#shade)" stroke-width="1"/>
</g>
</svg>
